<?xml version="1.0" encoding="utf-8"?>
<!-- Generator: Adobe Illustrator 19.2.0, SVG Export Plug-In . SVG Version: 6.00 Build 0)  -->
<svg version="1.1" id="Ebene_1" xmlns="http://www.w3.org/2000/svg" xmlns:xlink="http://www.w3.org/1999/xlink" x="0px" y="0px"
	 viewBox="0 0 256 256" style="enable-background:new 0 0 256 256;" xml:space="preserve">
<style type="text/css">
	.st0{fill:#999999;}
</style>
<g>
	<path class="st0" d="M55.1,210.1l46-45.6C91.9,155.3,86,142.1,86,128c0-28.6,23-51.6,51.6-51.6V11.7C73.2,11.7,21.3,63.6,21.3,128
		C21.3,160.2,34.1,189.1,55.1,210.1z"/>
	<path d="M137.6,71.2c-31.2,0-56.5,25.3-56.5,56.5c0,13.8,4.9,26.6,13.1,36.5L40.7,218c-2.6,2.6-2.6,6.6,0,9.2c1.3,1.3,3,2,4.6,2
		c1.6,0,3.3-0.7,4.6-2l53.9-53.9c9.5,6.9,21,11.2,33.8,11.2c31.2,0,56.5-25.3,56.5-56.5S168.8,71.2,137.6,71.2z M137.6,174.6
		c-25.9,0-46.6-21-46.6-46.6s21-46.6,46.6-46.6c25.9,0,46.6,21,46.6,46.6S163.2,174.6,137.6,174.6z"/>
	<path d="M137.6,247.5C71.6,247.5,18,194,18,128S71.6,8.5,137.6,8.5V15c-62.4,0-113,50.6-113,113s50.6,113,113,113
		C137.6,241,137.6,247.5,137.6,247.5z"/>
	<path d="M137.6,224.2c-53.2,0-96.6-43.4-96.6-96.6s43.4-96.6,96.6-96.6v3.3c-51.2,0-93.3,41.7-93.3,93.3s41.7,93.3,93.3,93.3V224.2
		z"/>
	<path d="M137.6,204.5C95.2,204.5,61,170,61,128s34.5-76.5,76.5-76.5v3.3c-40.4,0-73.2,32.8-73.2,73.2s32.8,73.2,73.2,73.2V204.5z"
		/>
</g>
</svg>
